<?xml version="1.0" encoding="utf-8"?>
<!-- Generator: Adobe Illustrator 23.0.0, SVG Export Plug-In . SVG Version: 6.00 Build 0)  -->
<svg version="1.1" id="Layer_1" xmlns="http://www.w3.org/2000/svg" xmlns:xlink="http://www.w3.org/1999/xlink" x="0px" y="0px"
	 viewBox="0 0 242.11 61.4" style="enable-background:new 0 0 242.11 61.4;" xml:space="preserve">
<style type="text/css">
	.st0{fill-rule:evenodd;clip-rule:evenodd;fill:#FFFFFF;}
</style>
<g>
	<g>
		<g>
			<path class="st0" d="M34.5,29.15c-0.79-0.21-1.6-0.32-2.42-0.33c-0.03,0-0.06,0-0.09,0c-0.37,0-0.74,0.02-1.11,0.06
				c-1.16,0.13-2.28,0.48-3.31,1v-7.72h-5.32v24.68h5.32v-8.28c0-1.18,0.47-2.29,1.3-3.12c0.64-0.64,1.45-1.07,2.34-1.23
				c0.26-0.05,0.52-0.07,0.78-0.07l0.07,0c0.71,0.01,1.41,0.2,2.04,0.54c0.3,0.17,0.59,0.37,0.85,0.6c0.06,0.05,0.11,0.1,0.17,0.16
				c0.83,0.83,1.3,1.94,1.3,3.12v8.28h5.32v-8.28c0-2.41-0.89-4.71-2.5-6.5c0,0-0.01-0.01-0.01-0.01c-0.11-0.13-0.23-0.25-0.35-0.37
				c-0.16-0.16-0.34-0.32-0.51-0.48c-0.98-0.85-2.12-1.5-3.36-1.9C34.84,29.24,34.67,29.19,34.5,29.15z"/>
			<path class="st0" d="M35.46,28.29c0.66-0.79,1.03-1.78,1.03-2.82c0-1.18-0.47-2.29-1.3-3.12c-0.83-0.83-1.94-1.3-3.12-1.3h-4.5
				h-5.32v-5.32h9.82c2.59,0,5.05,1.03,6.88,2.86c1.83,1.83,2.86,4.29,2.86,6.88c0,2.07-0.66,4.06-1.86,5.72
				c-0.09-0.1-0.19-0.2-0.29-0.3c-0.18-0.18-0.37-0.36-0.57-0.53c-1.06-0.92-2.29-1.63-3.62-2.08L35.46,28.29z"/>
		</g>
		<path class="st0" d="M8.19,6.28h47.68h1.16v1.16v47.68v1.16h-1.16H8.19H7.03v-1.16V7.44V6.28H8.19L8.19,6.28z M54.72,8.6H9.34
			v45.37h45.37V8.6z"/>
	</g>
	<path class="st0" d="M86.98,33.13l-3.41-5.35c1.89-0.98,2.92-2.8,2.92-5.28c0-3.64-2.48-5.74-6.82-5.74h-7.36v16.37h4.27V28.6h3.08
		h0.09l2.38,4.53H86.98L86.98,33.13z M161.73,16.76h-7.05v16.37h6.89c5.3,0,8.87-3.32,8.87-8.2
		C170.44,20.07,166.91,16.76,161.73,16.76L161.73,16.76z M161.84,29.67h-2.9v-9.43h2.69c2.59,0,4.44,1.91,4.44,4.74
		C166.07,27.78,164.32,29.67,161.84,29.67L161.84,29.67z M133.66,16.76v16.37h3.99v-9.81l7.43,9.81h3.74V16.76h-3.97v9.85
		l-7.43-9.85H133.66L133.66,16.76z M117.3,26.26v-9.5h-4.27v9.5c0,4.32,2.97,7.05,7.59,7.05c4.6,0,7.5-2.73,7.5-7.05v-9.5h-4.27v9.5
		c0,2.13-1.31,3.41-3.2,3.41C118.7,29.67,117.3,28.36,117.3,26.26L117.3,26.26z M99.67,16.64c-5.07,0-8.85,3.53-8.85,8.29
		c0,4.79,3.78,8.38,8.85,8.38c5.07,0,8.85-3.6,8.85-8.38C108.52,20.19,104.74,16.64,99.67,16.64L99.67,16.64z M99.72,20.29
		c2.45,0,4.41,2.01,4.41,4.67c0,2.66-1.96,4.72-4.41,4.72c-2.43,0-4.51-2.05-4.51-4.72C95.21,22.29,97.27,20.29,99.72,20.29
		L99.72,20.29z M76.58,20.17h3.11c1.73,0,2.73,0.86,2.73,2.47c0,1.66-1,2.55-2.73,2.55h-3.11V20.17z"/>
	<path class="st0" d="M175.22,16.76v16.37h4.27v-6.28h6.61v6.28h4.27V16.76h-4.27v6.68h-6.61v-6.68H175.22L175.22,16.76z
		 M222.12,16.76v16.37h11.21v-3.64h-6.94V16.76H222.12L222.12,16.76z M206.31,16.76v16.37h11.21v-3.64h-6.93V16.76H206.31
		L206.31,16.76z M196.21,16.76v16.37h4.27V16.76H196.21z"/>
	<path class="st0" d="M154.68,40.02v6.74h1.76v-6.74H154.68L154.68,40.02z M158.58,40.02v6.74h1.64v-4.04l3.06,4.04h1.54v-6.74
		h-1.64v4.06l-3.06-4.06H158.58L158.58,40.02z M166.3,40.02l2.62,6.74h1.83l2.64-6.74h-1.81l-1.69,4.88l-1.68-4.88H166.3
		L166.3,40.02z M174.85,40.02v6.74h5.41v-1.4h-3.65v-1.27l3.21-0.01v-1.4h-3.21v-1.26h3.56v-1.4H174.85L174.85,40.02z M186.83,42.09
		l0.66-1.39c-0.7-0.45-1.7-0.76-2.69-0.76c-1.63,0-2.69,0.8-2.69,2.06c0,2.39,3.55,1.69,3.55,2.84c0,0.36-0.33,0.55-0.85,0.55
		c-0.7,0-1.75-0.42-2.44-1.02l-0.68,1.38c0.81,0.66,1.98,1.08,3.11,1.08c1.5,0,2.71-0.7,2.71-2.08c0-2.42-3.55-1.79-3.55-2.9
		c0-0.31,0.28-0.46,0.7-0.46C185.21,41.37,186.11,41.69,186.83,42.09L186.83,42.09z M188.64,40.02v1.45h2v5.29h1.76v-5.29h2.02
		v-1.45H188.64L188.64,40.02z M195.97,40.02v6.74h1.57v-4.27l1.57,3.6h1.15l1.57-3.6l0.01,4.27h1.56v-6.74h-1.92l-1.79,3.93
		l-1.79-3.93H195.97L195.97,40.02z M205.54,40.02v6.74h5.41v-1.4h-3.65v-1.27l3.21-0.01v-1.4h-3.21v-1.26h3.56v-1.4H205.54
		L205.54,40.02z M212.87,40.02v6.74h1.64v-4.04l3.06,4.04h1.54v-6.74h-1.64v4.06l-3.06-4.06H212.87L212.87,40.02z M220.68,40.02
		v1.45h2v5.29h1.76v-5.29h2.02v-1.45H220.68L220.68,40.02z M232.65,42.09l0.66-1.39c-0.7-0.45-1.7-0.76-2.69-0.76
		c-1.63,0-2.69,0.8-2.69,2.06c0,2.39,3.55,1.69,3.55,2.84c0,0.36-0.33,0.55-0.85,0.55c-0.7,0-1.75-0.42-2.44-1.02l-0.68,1.38
		c0.81,0.66,1.98,1.08,3.11,1.08c1.5,0,2.71-0.7,2.71-2.08c0-2.42-3.55-1.79-3.55-2.9c0-0.31,0.28-0.46,0.7-0.46
		C231.04,41.37,231.94,41.69,232.65,42.09z"/>
	<rect x="72.31" y="42.22" class="st0" width="76.51" height="2.31"/>
</g>
</svg>
